<svg xmlns="http://www.w3.org/2000/svg" xmlns:xlink="http://www.w3.org/1999/xlink" viewBox="0 0 542.53 374.44"><defs><style>.cls-1,.cls-4,.cls-5{stroke-miterlimit:10;}.cls-1{fill:url(#radial-gradient);stroke:url(#radial-gradient-2);filter:url(#luminosity-invert);}.cls-2{mask:url(#mask);}.cls-3,.cls-5{fill:#ffe883;}.cls-4{fill:#ffa000;}.cls-4,.cls-5{stroke:#000;}.cls-5{stroke-width:6px;}</style><radialGradient id="radial-gradient" cx="263.8" cy="185.45" r="246.38" gradientUnits="userSpaceOnUse"><stop offset="0.62"/><stop offset="1" stop-color="#fff"/></radialGradient><radialGradient id="radial-gradient-2" cx="263.8" cy="185.45" r="246.87" gradientUnits="userSpaceOnUse"><stop offset="0" stop-color="#fff"/><stop offset="1"/></radialGradient><filter id="luminosity-invert" filterUnits="userSpaceOnUse" color-interpolation-filters="sRGB"><feColorMatrix values="-1 0 0 0 1 0 -1 0 0 1 0 0 -1 0 1 0 0 0 1 0"/></filter><mask id="mask" x="-23.54" y="-12.86" width="574.68" height="396.61" maskUnits="userSpaceOnUse"><rect class="cls-1" x="-23.04" y="-12.36" width="573.68" height="395.61"/></mask></defs><g id="Layer_2" data-name="Layer 2"><g class="cls-2"><g id="Layer_4" data-name="Layer 4"><rect class="cls-3" x="0.5" y="0.5" width="541.53" height="373.44"/><polygon class="cls-4" points="542.03 333.25 542.03 308.62 402.02 244.57 412.98 262.67 542.03 333.25"/><polygon class="cls-4" points="353.67 66.02 402.57 0.5 383.32 0.5 329.15 85 354.55 55.64 353.67 66.02"/><polygon class="cls-4" points="521.84 373.94 542.03 373.94 542.03 359.93 365.47 246.23 366.85 257.75 521.84 373.94"/><polygon class="cls-4" points="457.8 373.94 487.2 373.94 368.42 270.95 370.26 286.39 457.8 373.94"/><polygon class="cls-4" points="323.65 259.03 409.84 373.94 432.35 373.94 355.69 285.57 323.91 256.83 323.65 259.03"/><polygon class="cls-4" points="273.29 273.9 280.41 373.94 294.21 373.94 278.76 265.96 277.44 263.98 273.29 273.9"/><polygon class="cls-4" points="542.03 202.39 542.03 182.37 438.67 182.35 435.77 182.35 416.81 193.55 542.03 202.39"/><polygon class="cls-4" points="542.03 285.46 542.03 263.56 385.79 217.78 393.16 229.95 542.03 285.46"/><polygon class="cls-4" points="542.03 242.56 542.03 222.24 402.01 202.29 389.65 209.58 542.03 242.56"/><polygon class="cls-4" points="371.12 373.94 389.59 373.94 322.38 269.61 320.88 282.17 371.12 373.94"/><polygon class="cls-4" points="448.19 0.5 424 0.5 352.16 83.66 350.93 98.17 448.19 0.5"/><polygon class="cls-4" points="508.95 0.5 476.08 0.5 349.88 110.4 348.98 120.94 508.95 0.5"/><polygon class="cls-4" points="261.81 94.01 253.01 0.5 239.96 0.5 253.72 91.28 258.16 99.55 261.81 94.01"/><polygon class="cls-4" points="542.03 31.48 542.03 4.83 396.95 98.67 393.65 113.1 542.03 31.48"/><polygon class="cls-4" points="365.73 0.5 349.45 0.5 304.65 98.99 307.82 106.83 365.73 0.5"/><polygon class="cls-4" points="334.2 0.5 319.74 0.5 296.78 79.48 301.01 89.97 334.2 0.5"/><polygon class="cls-4" points="338.04 373.94 354.04 373.94 319.04 297.5 316.72 316.89 338.04 373.94"/><polygon class="cls-4" points="0.5 164.44 0.5 182.98 108.06 182.98 123.46 172.51 0.5 164.44"/><polygon class="cls-4" points="252.66 373.94 266.7 373.94 266.69 353.46 269.49 282.96 258.69 308.75 252.66 373.94"/><polygon class="cls-4" points="279.31 0.5 265.86 0.5 266.64 18.54 266.64 86.7 274.18 75.29 279.31 0.5"/><polygon class="cls-4" points="308.31 373.94 322.86 373.94 300.97 299.42 287.82 279.61 308.31 373.94"/><polygon class="cls-4" points="291.67 66.84 305.89 0.5 292.46 0.5 284.06 60.31 287.15 55.64 291.67 66.84"/><polygon class="cls-4" points="89.32 195.7 0.5 201.73 0.5 220.58 97.94 207.37 76.77 204.23 89.32 195.7"/><polygon class="cls-4" points="542.03 79.31 542.03 56.19 390.76 125.79 388.17 137.13 542.03 79.31"/><polygon class="cls-4" points="408.08 151.64 542.03 122.22 542.03 101.26 404.89 141.82 420.42 140.4 408.08 151.64"/><polygon class="cls-4" points="0.5 239.82 0.5 259.73 111.01 229.07 115.92 216.16 0.5 239.82"/><polygon class="cls-4" points="0.5 126.35 0.5 145.58 129.27 162.71 125.52 151.72 0.5 126.35"/><polygon class="cls-4" points="0.5 326.22 0.5 351.97 142.16 263.65 143.66 251 0.5 326.22"/><polygon class="cls-4" points="191.07 320.66 163.33 373.94 180.22 373.94 209.64 305.85 193.7 339.55 191.07 320.66"/><polygon class="cls-4" points="124.69 373.94 144.96 373.94 188.66 303.4 186.66 289.06 124.69 373.94"/><polygon class="cls-4" points="139.57 285.43 140.47 277.88 9.45 373.94 45.63 373.94 182.17 256.81 181.96 255.3 139.57 285.43"/><polygon class="cls-4" points="542.03 162.49 542.03 142.61 394.46 164.04 383.42 174.09 542.03 162.49"/><polygon class="cls-4" points="75.94 373.94 101.94 373.94 184.96 276.88 183.48 266.26 75.94 373.94"/><polygon class="cls-4" points="167.32 0.5 149.79 0.5 206.49 91.49 209.38 80.72 167.32 0.5"/><polygon class="cls-4" points="20.25 0.5 0.5 0.5 0.5 14.5 154.57 110.04 154.94 98.75 20.25 0.5"/><polygon class="cls-4" points="240.92 67.4 226.64 0.5 212.9 0.5 222.12 33.31 222.3 32.66 240.92 67.4"/><polygon class="cls-4" points="83.81 0.5 54.82 0.5 155.34 86.25 155.79 72.15 83.81 0.5"/><polygon class="cls-4" points="203.91 101.08 204.01 100.73 130.44 0.5 108.68 0.5 156.32 55.88 156.42 52.57 203.91 101.08"/><polygon class="cls-4" points="196.01 373.94 210.95 373.94 237.09 280.02 232.45 270.29 196.01 373.94"/><polygon class="cls-4" points="0.5 85.73 0.5 106.49 121.44 139.78 116.96 126.68 0.5 85.73"/><polygon class="cls-4" points="137.33 111.63 0.5 40.18 0.5 63.73 111.98 112.07 109.44 104.66 137.33 111.63"/><polygon class="cls-4" points="198.59 0.5 183.49 0.5 212.82 67.93 216.99 52.42 198.59 0.5"/><polygon class="cls-4" points="104.34 246.62 105.6 243.31 0.5 280.52 0.5 302.56 145.03 239.51 145.7 233.85 104.34 246.62"/><polygon class="cls-4" points="225.26 373.94 239.12 373.94 249.32 305.71 242.63 291.68 225.26 373.94"/><polygon class="cls-5" points="193.7 339.55 229.44 263.98 254.98 317.6 277.44 263.98 316.08 322.19 323.91 256.83 371.91 300.23 365.27 244.57 415.32 266.53 383.15 213.43 436.76 181.76 380.59 176.66 420.42 140.4 386.72 143.47 397.44 96.49 348.94 121.51 354.55 55.64 308.59 108.74 287.15 55.64 258.16 99.55 222.3 32.66 203.91 101.08 156.42 52.57 154.38 115.89 109.44 104.66 130.89 167.47 76.77 204.23 118.13 210.36 104.34 246.62 145.7 233.85 139.57 285.43 181.96 255.3 193.7 339.55"/></g></g></g></svg>